<svg width="69" height="19" viewBox="0 0 69 19" fill="none" xmlns="http://www.w3.org/2000/svg">
<path d="M5.44799 8.72409C6.032 8.72409 6.536 8.65209 6.96 8.50809C7.384 8.35609 7.732 8.15209 8.004 7.89609C8.276 7.63209 8.476 7.32409 8.604 6.97209C8.732 6.62009 8.796 6.23609 8.796 5.82009C8.796 4.99609 8.52 4.35609 7.968 3.90009C7.424 3.44409 6.592 3.21609 5.472 3.21609H3.6V8.72409H5.44799ZM13.884 17.8921H10.632C10.024 17.8921 9.584 17.6601 9.312 17.1961L5.99999 11.8561C5.864 11.6481 5.712 11.4961 5.544 11.4001C5.384 11.3041 5.144 11.2561 4.824 11.2561H3.6V17.8921H-5.00679e-06V0.480089H5.472C6.688 0.480089 7.728 0.608089 8.592 0.864089C9.456 1.11209 10.164 1.46009 10.716 1.90809C11.268 2.35609 11.672 2.89209 11.928 3.51609C12.184 4.13209 12.312 4.81209 12.312 5.55609C12.312 6.13209 12.228 6.68009 12.06 7.20009C11.9 7.71209 11.664 8.18009 11.352 8.60409C11.04 9.02809 10.656 9.40409 10.2 9.73209C9.744 10.0601 9.224 10.3241 8.64 10.5241C8.872 10.6521 9.088 10.8081 9.288 10.9921C9.488 11.1681 9.668 11.3801 9.828 11.6281L13.884 17.8921ZM22.587 12.7201C21.779 12.7601 21.107 12.8321 20.571 12.9361C20.035 13.0321 19.607 13.1601 19.287 13.3201C18.975 13.4801 18.751 13.6641 18.615 13.8721C18.487 14.0721 18.423 14.2921 18.423 14.5321C18.423 15.0121 18.555 15.3521 18.819 15.5521C19.091 15.7521 19.467 15.8521 19.947 15.8521C20.499 15.8521 20.975 15.7561 21.375 15.5641C21.783 15.3641 22.187 15.0561 22.587 14.6401V12.7201ZM15.843 7.23609C16.571 6.58009 17.375 6.09209 18.255 5.77209C19.135 5.44409 20.087 5.28009 21.111 5.28009C21.847 5.28009 22.503 5.40009 23.079 5.64009C23.663 5.88009 24.155 6.21609 24.555 6.64809C24.963 7.07209 25.275 7.58009 25.491 8.17209C25.707 8.76409 25.815 9.41209 25.815 10.1161V17.8921H24.303C23.991 17.8921 23.751 17.8481 23.583 17.7601C23.423 17.6721 23.291 17.4881 23.187 17.2081L22.923 16.4161C22.611 16.6881 22.307 16.9281 22.011 17.1361C21.723 17.3441 21.423 17.5201 21.111 17.6641C20.799 17.8001 20.463 17.9041 20.103 17.9761C19.751 18.0481 19.355 18.0841 18.915 18.0841C18.371 18.0841 17.875 18.0121 17.427 17.8681C16.979 17.7241 16.591 17.5121 16.263 17.2321C15.943 16.9441 15.695 16.5881 15.519 16.1641C15.343 15.7401 15.255 15.2521 15.255 14.7001C15.255 14.2441 15.371 13.7881 15.603 13.3321C15.835 12.8761 16.231 12.4641 16.791 12.0961C17.359 11.7201 18.111 11.4121 19.047 11.1721C19.991 10.9241 21.171 10.7841 22.587 10.7521V10.1161C22.587 9.34009 22.423 8.77209 22.095 8.41209C21.767 8.04409 21.295 7.86009 20.679 7.86009C20.223 7.86009 19.843 7.91609 19.539 8.02809C19.235 8.13209 18.967 8.24809 18.735 8.37609C18.511 8.49609 18.299 8.61209 18.099 8.72409C17.899 8.82809 17.667 8.88009 17.403 8.88009C17.171 8.88009 16.975 8.82409 16.815 8.71209C16.663 8.59209 16.535 8.45209 16.431 8.29209L15.843 7.23609ZM40.6836 5.52009L35.8236 17.8921H32.8236L27.9636 5.52009H30.7116C30.9516 5.52009 31.1516 5.57609 31.3116 5.68809C31.4716 5.80009 31.5836 5.94409 31.6476 6.12009L33.7236 12.2401C33.8596 12.6561 33.9796 13.0641 34.0836 13.4641C34.1876 13.8561 34.2796 14.2521 34.3596 14.6521C34.4476 14.2521 34.5436 13.8561 34.6476 13.4641C34.7596 13.0641 34.8876 12.6561 35.0316 12.2401L37.1796 6.12009C37.2356 5.94409 37.3436 5.80009 37.5036 5.68809C37.6636 5.57609 37.8516 5.52009 38.0676 5.52009H40.6836ZM50.742 10.2481C50.742 9.90409 50.694 9.57609 50.598 9.26409C50.51 8.95209 50.366 8.67609 50.166 8.43609C49.966 8.19609 49.714 8.00809 49.41 7.87209C49.106 7.72809 48.742 7.65609 48.318 7.65609C47.526 7.65609 46.906 7.88009 46.458 8.32809C46.01 8.77609 45.718 9.41609 45.582 10.2481H50.742ZM45.534 12.2161C45.638 13.3761 45.966 14.2241 46.518 14.7601C47.078 15.2961 47.806 15.5641 48.702 15.5641C49.158 15.5641 49.55 15.5121 49.878 15.4081C50.214 15.2961 50.506 15.1761 50.754 15.0481C51.01 14.9121 51.238 14.7921 51.438 14.6881C51.646 14.5761 51.85 14.5201 52.05 14.5201C52.306 14.5201 52.506 14.6161 52.65 14.8081L53.61 16.0081C53.258 16.4161 52.87 16.7561 52.446 17.0281C52.022 17.2921 51.582 17.5041 51.126 17.6641C50.67 17.8161 50.21 17.9201 49.746 17.9761C49.282 18.0401 48.834 18.0721 48.402 18.0721C47.538 18.0721 46.73 17.9321 45.978 17.6521C45.234 17.3641 44.582 16.9441 44.022 16.3921C43.47 15.8321 43.034 15.1401 42.714 14.3161C42.394 13.4921 42.234 12.5361 42.234 11.4481C42.234 10.6081 42.37 9.81609 42.642 9.07209C42.922 8.32809 43.322 7.68009 43.842 7.12809C44.362 6.57609 44.994 6.14009 45.738 5.82009C46.482 5.49209 47.322 5.32809 48.258 5.32809C49.05 5.32809 49.778 5.45609 50.442 5.71209C51.114 5.96009 51.69 6.32409 52.17 6.80409C52.658 7.28409 53.034 7.87609 53.298 8.58009C53.57 9.27609 53.706 10.0721 53.706 10.9681C53.706 11.2161 53.694 11.4201 53.67 11.5801C53.646 11.7401 53.606 11.8681 53.55 11.9641C53.494 12.0601 53.418 12.1281 53.322 12.1681C53.226 12.2001 53.102 12.2161 52.95 12.2161H45.534ZM60.2732 8.91685e-05V10.1521H60.8252C61.0332 10.1521 61.1972 10.1241 61.3172 10.0681C61.4372 10.0041 61.5572 9.89209 61.6772 9.73209L64.4132 6.08409C64.5492 5.90009 64.7012 5.76009 64.8692 5.66409C65.0452 5.56809 65.2652 5.52009 65.5292 5.52009H68.5532L65.0012 10.0321C64.7212 10.4081 64.3972 10.7041 64.0292 10.9201C64.2132 11.0481 64.3732 11.1961 64.5092 11.3641C64.6452 11.5321 64.7772 11.7201 64.9052 11.9281L68.7332 17.8921H65.7572C65.5012 17.8921 65.2812 17.8521 65.0972 17.7721C64.9132 17.6841 64.7612 17.5321 64.6412 17.3161L61.8572 12.7681C61.7452 12.5761 61.6292 12.4521 61.5092 12.3961C61.3892 12.3401 61.2092 12.3121 60.9692 12.3121H60.2732V17.8921H56.9612V8.91685e-05H60.2732Z" fill="#64629D"/>
</svg>
